{
  "accessors": [
    {
      "bufferView": 2,
      "componentType": 5126,
      "count": 2287,
      "max": [
        2.6285998821258545,
        21.838899612426758,
        3.0924999713897705
      ],
      "min": [
        -2.8403000831604004,
        -0.3158999979496002,
        -3.615499973297119
      ],
      "type": "VEC3"
    },
    {
      "bufferView": 2,
      "byteOffset": 27444,
      "componentType": 5126,
      "count": 2287,
      "max": [
        0.9997209906578064,
        0.999409019947052,
        0.9992039799690247
      ],
      "min": [
        -0.9998646378517151,
        -0.9949681162834167,
        -0.9999580979347229
      ],
      "type": "VEC3"
    },
    {
      "bufferView": 1,
      "componentType": 5126,
      "count": 2287,
      "max": [
        0.994700014591217,
        0.9908999800682068
      ],
      "min": [
        0.006000000052154064,
        0.00430000014603138
      ],
      "type": "VEC2"
    },
    {
      "bufferView": 1,
      "byteOffset": 18296,
      "componentType": 5126,
      "count": 2287,
      "max": [
        0.994700014591217,
        0.9908999800682068
      ],
      "min": [
        0.006000000052154064,
        0.00430000014603138
      ],
      "type": "VEC2"
    },
    {
      "bufferView": 1,
      "byteOffset": 36592,
      "componentType": 5126,
      "count": 2287,
      "max": [
        0.994700014591217,
        0.9908999800682068
      ],
      "min": [
        0.006000000052154064,
        0.00430000014603138
      ],
      "type": "VEC2"
    },
    {
      "bufferView": 1,
      "byteOffset": 54888,
      "componentType": 5126,
      "count": 2287,
      "max": [
        0.994700014591217,
        0.9908999800682068
      ],
      "min": [
        0.006000000052154064,
        0.00430000014603138
      ],
      "type": "VEC2"
    },
    {
      "bufferView": 1,
      "byteOffset": 73184,
      "componentType": 5126,
      "count": 2287,
      "max": [
        0.994700014591217,
        0.9908999800682068
      ],
      "min": [
        0.006000000052154064,
        0.00430000014603138
      ],
      "type": "VEC2"
    },
    {
      "bufferView": 1,
      "byteOffset": 91480,
      "componentType": 5126,
      "count": 2287,
      "max": [
        0.994700014591217,
        0.9908999800682068
      ],
      "min": [
        0.006000000052154064,
        0.00430000014603138
      ],
      "type": "VEC2"
    },
    {
      "bufferView": 1,
      "byteOffset": 109776,
      "componentType": 5126,
      "count": 2287,
      "max": [
        0.994700014591217,
        0.9908999800682068
      ],
      "min": [
        0.006000000052154064,
        0.00430000014603138
      ],
      "type": "VEC2"
    },
    {
      "bufferView": 1,
      "byteOffset": 128072,
      "componentType": 5126,
      "count": 2287,
      "max": [
        0.994700014591217,
        0.9908999800682068
      ],
      "min": [
        0.006000000052154064,
        0.00430000014603138
      ],
      "type": "VEC2"
    },
    {
      "bufferView": 1,
      "byteOffset": 146368,
      "componentType": 5126,
      "count": 2287,
      "max": [
        0.994700014591217,
        0.9908999800682068
      ],
      "min": [
        0.006000000052154064,
        0.00430000014603138
      ],
      "type": "VEC2"
    },
    {
      "bufferView": 1,
      "byteOffset": 164664,
      "componentType": 5126,
      "count": 2287,
      "max": [
        0.994700014591217,
        0.9908999800682068
      ],
      "min": [
        0.006000000052154064,
        0.00430000014603138
      ],
      "type": "VEC2"
    },
    {
      "bufferView": 0,
      "componentType": 5125,
      "count": 11988,
      "type": "SCALAR"
    }
  ],
  "asset": {
    "extras": {
      "author": "ThatJamGuy (https://sketchfab.com/EComputer)",
      "license": "CC-BY-4.0 (http://creativecommons.org/licenses/by/4.0/)",
      "source": "https://sketchfab.com/3d-models/scp-173-e4ef798fb0284b31bf90bad0d3bc7fc8",
      "title": "SCP-173"
    },
    "generator": "Sketchfab-13.28.0",
    "version": "2.0"
  },
  "bufferViews": [
    {
      "buffer": 0,
      "byteLength": 47952,
      "name": "floatBufferViews",
      "target": 34963
    },
    {
      "buffer": 0,
      "byteLength": 182960,
      "byteOffset": 47952,
      "byteStride": 8,
      "name": "floatBufferViews",
      "target": 34962
    },
    {
      "buffer": 0,
      "byteLength": 54888,
      "byteOffset": 230912,
      "byteStride": 12,
      "name": "floatBufferViews",
      "target": 34962
    }
  ],
  "buffers": [
    {
      "byteLength": 285800,
      "uri": "scene.bin"
    }
  ],
  "images": [
    {
      "uri": "textures/01___Default_baseColor.jpeg"
    }
  ],
  "materials": [
    {
      "doubleSided": true,
      "name": "01___Default",
      "pbrMetallicRoughness": {
        "baseColorTexture": {
          "index": 0
        },
        "metallicFactor": 0.0,
        "roughnessFactor": 0.9577051494623774
      }
    }
  ],
  "meshes": [
    {
      "name": "Scene_Root_01___Default_0",
      "primitives": [
        {
          "attributes": {
            "NORMAL": 1,
            "POSITION": 0,
            "TEXCOORD_0": 2,
            "TEXCOORD_1": 3,
            "TEXCOORD_2": 4,
            "TEXCOORD_3": 5,
            "TEXCOORD_4": 6,
            "TEXCOORD_5": 7,
            "TEXCOORD_6": 8,
            "TEXCOORD_7": 9,
            "TEXCOORD_8": 10,
            "TEXCOORD_9": 11
          },
          "indices": 12,
          "material": 0,
          "mode": 4
        }
      ]
    }
  ],
  "nodes": [
    {
      "children": [
        1
      ],
      "matrix": [
        1.0,
        0.0,
        0.0,
        0.0,
        0.0,
        2.220446049250313e-16,
        -1.0,
        0.0,
        0.0,
        1.0,
        2.220446049250313e-16,
        0.0,
        0.0,
        0.0,
        0.0,
        1.0
      ],
      "name": "Sketchfab_model"
    },
    {
      "children": [
        2
      ],
      "matrix": [
        0.009999999776482582,
        0.0,
        0.0,
        0.0,
        0.0,
        0.0,
        0.009999999776482582,
        0.0,
        0.0,
        -0.009999999776482582,
        0.0,
        0.0,
        0.0,
        0.0,
        0.0,
        1.0
      ],
      "name": "a7344ce05d0d430ea1163c7a7d1a0d23.fbx"
    },
    {
      "children": [
        3
      ],
      "name": "RootNode"
    },
    {
      "children": [
        4
      ],
      "name": "173_2_root"
    },
    {
      "children": [
        5
      ],
      "name": "Scene_Root"
    },
    {
      "mesh": 0,
      "name": "Scene_Root_01___Default_0"
    }
  ],
  "samplers": [
    {
      "magFilter": 9729,
      "minFilter": 9987,
      "wrapS": 10497,
      "wrapT": 10497
    }
  ],
  "scene": 0,
  "scenes": [
    {
      "name": "Sketchfab_Scene",
      "nodes": [
        0
      ]
    }
  ],
  "textures": [
    {
      "sampler": 0,
      "source": 0
    }
  ]
}
