{
  "accessors": [
    {
      "bufferView": 2,
      "componentType": 5126,
      "count": 65532,
      "max": [
        3.195099115371704,
        1.6756600141525269,
        7.155364036560059
      ],
      "min": [
        -5.332709789276123,
        -25.204139709472656,
        -8.229493141174316
      ],
      "type": "VEC3"
    },
    {
      "bufferView": 2,
      "byteOffset": 786384,
      "componentType": 5126,
      "count": 65532,
      "max": [
        0.9991233348846436,
        0.9998918771743774,
        0.999996542930603
      ],
      "min": [
        -0.9999783635139465,
        -0.9999991059303284,
        -0.9999866485595703
      ],
      "type": "VEC3"
    },
    {
      "bufferView": 1,
      "componentType": 5126,
      "count": 65532,
      "max": [
        0.9992679953575134,
        0.9988970160484314
      ],
      "min": [
        0.0007319999858736992,
        0.0007350000087171793
      ],
      "type": "VEC2"
    },
    {
      "bufferView": 0,
      "componentType": 5125,
      "count": 343323,
      "type": "SCALAR"
    },
    {
      "bufferView": 2,
      "byteOffset": 1572768,
      "componentType": 5126,
      "count": 65532,
      "max": [
        8.27684497833252,
        2.2147510051727295,
        8.461989402770996
      ],
      "min": [
        -3.1034109592437744,
        -25.260852813720703,
        -9.293696403503418
      ],
      "type": "VEC3"
    },
    {
      "bufferView": 2,
      "byteOffset": 2359152,
      "componentType": 5126,
      "count": 65532,
      "max": [
        0.999937891960144,
        0.9999386668205261,
        0.9998949766159058
      ],
      "min": [
        -0.9999962449073792,
        -0.9999929070472717,
        -0.9999866485595703
      ],
      "type": "VEC3"
    },
    {
      "bufferView": 1,
      "byteOffset": 524256,
      "componentType": 5126,
      "count": 65532,
      "max": [
        0.9992679953575134,
        0.9982849955558777
      ],
      "min": [
        0.0007319999858736992,
        0.0007350000087171793
      ],
      "type": "VEC2"
    },
    {
      "bufferView": 0,
      "byteOffset": 1373292,
      "componentType": 5125,
      "count": 341343,
      "type": "SCALAR"
    },
    {
      "bufferView": 2,
      "byteOffset": 3145536,
      "componentType": 5126,
      "count": 65532,
      "max": [
        6.0704569816589355,
        0.12030799686908722,
        6.217916965484619
      ],
      "min": [
        -6.0644612312316895,
        -32.71122741699219,
        -9.349325180053711
      ],
      "type": "VEC3"
    },
    {
      "bufferView": 2,
      "byteOffset": 3931920,
      "componentType": 5126,
      "count": 65532,
      "max": [
        0.9999939799308777,
        0.9998892545700073,
        0.9999905228614807
      ],
      "min": [
        -0.9999991059303284,
        -0.9993801116943359,
        -0.9999847412109375
      ],
      "type": "VEC3"
    },
    {
      "bufferView": 1,
      "byteOffset": 1048512,
      "componentType": 5126,
      "count": 65532,
      "max": [
        0.9987789988517761,
        0.9988970160484314
      ],
      "min": [
        0.0007319999858736992,
        0.0007350000087171793
      ],
      "type": "VEC2"
    },
    {
      "bufferView": 0,
      "byteOffset": 2738664,
      "componentType": 5125,
      "count": 338745,
      "type": "SCALAR"
    },
    {
      "bufferView": 2,
      "byteOffset": 4718304,
      "componentType": 5126,
      "count": 65532,
      "max": [
        3.1628589630126953,
        1.9832979440689087,
        4.221786022186279
      ],
      "min": [
        -6.08936882019043,
        -34.1767692565918,
        -9.642851829528809
      ],
      "type": "VEC3"
    },
    {
      "bufferView": 2,
      "byteOffset": 5504688,
      "componentType": 5126,
      "count": 65532,
      "max": [
        0.9999565482139587,
        0.999846875667572,
        0.9999774694442749
      ],
      "min": [
        -0.999965488910675,
        -0.9997986555099487,
        -0.9999374747276306
      ],
      "type": "VEC3"
    },
    {
      "bufferView": 1,
      "byteOffset": 1572768,
      "componentType": 5126,
      "count": 65532,
      "max": [
        0.9992679953575134,
        0.9980390071868896
      ],
      "min": [
        0.0007319999858736992,
        0.0007350000087171793
      ],
      "type": "VEC2"
    },
    {
      "bufferView": 0,
      "byteOffset": 4093644,
      "componentType": 5125,
      "count": 341253,
      "type": "SCALAR"
    },
    {
      "bufferView": 2,
      "byteOffset": 6291072,
      "componentType": 5126,
      "count": 55381,
      "max": [
        3.2081611156463623,
        1.8728129863739014,
        8.276022911071777
      ],
      "min": [
        -4.916913032531738,
        -24.632991790771484,
        -8.86723518371582
      ],
      "type": "VEC3"
    },
    {
      "bufferView": 2,
      "byteOffset": 6955644,
      "componentType": 5126,
      "count": 55381,
      "max": [
        0.9986443519592285,
        0.9984089732170105,
        0.999987781047821
      ],
      "min": [
        -0.999967098236084,
        -0.9999996423721313,
        -0.9999816417694092
      ],
      "type": "VEC3"
    },
    {
      "bufferView": 1,
      "byteOffset": 2097024,
      "componentType": 5126,
      "count": 55381,
      "max": [
        0.9992679953575134,
        0.9992650151252747
      ],
      "min": [
        0.0007319999858736992,
        0.01960499957203865
      ],
      "type": "VEC2"
    },
    {
      "bufferView": 0,
      "byteOffset": 5458656,
      "componentType": 5125,
      "count": 291846,
      "type": "SCALAR"
    }
  ],
  "asset": {
    "extras": {
      "author": "Geoffrey Marchal (https://sketchfab.com/geoffreymarchal)",
      "license": "CC-BY-NC-SA-4.0 (http://creativecommons.org/licenses/by-nc-sa/4.0/)",
      "source": "https://sketchfab.com/3d-models/vulcan-a9f8a85b4d6842cf9e10b7b5d4070dc2",
      "title": "Vulcan"
    },
    "generator": "Sketchfab-15.12.0",
    "version": "2.0"
  },
  "bufferViews": [
    {
      "buffer": 0,
      "byteLength": 6626040,
      "name": "floatBufferViews",
      "target": 34963
    },
    {
      "buffer": 0,
      "byteLength": 2540072,
      "byteOffset": 6626040,
      "byteStride": 8,
      "name": "floatBufferViews",
      "target": 34962
    },
    {
      "buffer": 0,
      "byteLength": 7620216,
      "byteOffset": 9166112,
      "byteStride": 12,
      "name": "floatBufferViews",
      "target": 34962
    }
  ],
  "buffers": [
    {
      "byteLength": 16786328,
      "uri": "scene.bin"
    }
  ],
  "extensionsUsed": [
    "KHR_materials_specular"
  ],
  "images": [
    {
      "uri": "textures/Material_0_baseColor.jpeg"
    },
    {
      "uri": "textures/Material_0_specularf0.png"
    }
  ],
  "materials": [
    {
      "doubleSided": true,
      "extensions": {
        "KHR_materials_specular": {
          "specularColorFactor": [
            1.0,
            1.0,
            1.0
          ],
          "specularFactor": 1.0,
          "specularTexture": {
            "index": 1
          }
        }
      },
      "name": "Material_0",
      "pbrMetallicRoughness": {
        "baseColorTexture": {
          "index": 0
        },
        "metallicFactor": 0.0
      }
    }
  ],
  "meshes": [
    {
      "name": "Object_0",
      "primitives": [
        {
          "attributes": {
            "NORMAL": 1,
            "POSITION": 0,
            "TEXCOORD_0": 2
          },
          "indices": 3,
          "material": 0,
          "mode": 4
        }
      ]
    },
    {
      "name": "Object_1",
      "primitives": [
        {
          "attributes": {
            "NORMAL": 5,
            "POSITION": 4,
            "TEXCOORD_0": 6
          },
          "indices": 7,
          "material": 0,
          "mode": 4
        }
      ]
    },
    {
      "name": "Object_2",
      "primitives": [
        {
          "attributes": {
            "NORMAL": 9,
            "POSITION": 8,
            "TEXCOORD_0": 10
          },
          "indices": 11,
          "material": 0,
          "mode": 4
        }
      ]
    },
    {
      "name": "Object_3",
      "primitives": [
        {
          "attributes": {
            "NORMAL": 13,
            "POSITION": 12,
            "TEXCOORD_0": 14
          },
          "indices": 15,
          "material": 0,
          "mode": 4
        }
      ]
    },
    {
      "name": "Object_4",
      "primitives": [
        {
          "attributes": {
            "NORMAL": 17,
            "POSITION": 16,
            "TEXCOORD_0": 18
          },
          "indices": 19,
          "material": 0,
          "mode": 4
        }
      ]
    }
  ],
  "nodes": [
    {
      "children": [
        1
      ],
      "matrix": [
        0.22424264252185822,
        0.0424662083387377,
        -0.9736076593399048,
        0.0,
        0.025048566982150078,
        -0.9989712238311768,
        -0.037803277373314126,
        0.0,
        -0.9742113947868347,
        -0.01591036841273303,
        -0.22507566213607788,
        0.0,
        0.0,
        0.0,
        0.0,
        1.0
      ],
      "name": "Sketchfab_model"
    },
    {
      "children": [
        2,
        3,
        4,
        5,
        6
      ],
      "name": "A9 - vulcan.obj.cleaner.materialmerger.gles"
    },
    {
      "mesh": 0,
      "name": "Object_2"
    },
    {
      "mesh": 1,
      "name": "Object_3"
    },
    {
      "mesh": 2,
      "name": "Object_4"
    },
    {
      "mesh": 3,
      "name": "Object_5"
    },
    {
      "mesh": 4,
      "name": "Object_6"
    }
  ],
  "samplers": [
    {
      "magFilter": 9729,
      "minFilter": 9987,
      "wrapS": 10497,
      "wrapT": 10497
    },
    {
      "magFilter": 9728,
      "minFilter": 9728,
      "wrapS": 10497,
      "wrapT": 10497
    }
  ],
  "scene": 0,
  "scenes": [
    {
      "name": "Sketchfab_Scene",
      "nodes": [
        0
      ]
    }
  ],
  "textures": [
    {
      "sampler": 0,
      "source": 0
    },
    {
      "sampler": 1,
      "source": 1
    }
  ]
}
